<svg id="visual" viewBox="0 0 900 600" width="900" height="600" xmlns="http://www.w3.org/2000/svg" xmlns:xlink="http://www.w3.org/1999/xlink" version="1.1"><rect width="900" height="600" fill="#931F1F"></rect><g><g transform="translate(499 298)"><path d="M86.4 -30.6C99.1 11.3 88 58.5 56.2 82.9C24.4 107.3 -28 108.9 -59.4 85.2C-90.9 61.6 -101.6 12.6 -88.2 -30.2C-74.8 -72.9 -37.4 -109.3 -0.3 -109.2C36.8 -109.1 73.6 -72.5 86.4 -30.6Z" stroke="#F7760E" fill="none" stroke-width="20"></path></g><g transform="translate(174 177)"><path d="M57.3 -19C64.6 3.9 54.2 32.1 34.3 46.5C14.3 60.8 -15.3 61.3 -35.5 47C-55.8 32.7 -66.8 3.7 -59.4 -19.4C-51.9 -42.5 -26 -59.8 -0.5 -59.6C25 -59.5 50 -41.9 57.3 -19Z" stroke="#F7760E" fill="none" stroke-width="20"></path></g></g></svg>