<svg id="visual" viewBox="0 0 900 600" width="900" height="600" xmlns="http://www.w3.org/2000/svg" xmlns:xlink="http://www.w3.org/1999/xlink" version="1.1"><rect x="0" y="0" width="900" height="600" fill="#001220"></rect><path d="M0 496L21.5 490.7C43 485.3 86 474.7 128.8 471.8C171.7 469 214.3 474 257.2 477C300 480 343 481 385.8 485.5C428.7 490 471.3 498 514.2 499.3C557 500.7 600 495.3 642.8 486.5C685.7 477.7 728.3 465.3 771.2 458.7C814 452 857 451 878.5 450.5L900 450L900 601L878.5 601C857 601 814 601 771.2 601C728.3 601 685.7 601 642.8 601C600 601 557 601 514.2 601C471.3 601 428.7 601 385.8 601C343 601 300 601 257.2 601C214.3 601 171.7 601 128.8 601C86 601 43 601 21.5 601L0 601Z" fill="#fa7268"></path><path d="M0 509L21.5 504.5C43 500 86 491 128.8 485.3C171.7 479.7 214.3 477.3 257.2 483.5C300 489.7 343 504.3 385.8 510.7C428.7 517 471.3 515 514.2 513.7C557 512.3 600 511.7 642.8 514C685.7 516.3 728.3 521.7 771.2 519.2C814 516.7 857 506.3 878.5 501.2L900 496L900 601L878.5 601C857 601 814 601 771.2 601C728.3 601 685.7 601 642.8 601C600 601 557 601 514.2 601C471.3 601 428.7 601 385.8 601C343 601 300 601 257.2 601C214.3 601 171.7 601 128.8 601C86 601 43 601 21.5 601L0 601Z" fill="#ef5f67"></path><path d="M0 541L21.5 538.3C43 535.7 86 530.3 128.8 529.3C171.7 528.3 214.3 531.7 257.2 535.2C300 538.7 343 542.3 385.8 543.2C428.7 544 471.3 542 514.2 538.3C557 534.7 600 529.3 642.8 527C685.7 524.7 728.3 525.3 771.2 522.8C814 520.3 857 514.7 878.5 511.8L900 509L900 601L878.5 601C857 601 814 601 771.2 601C728.3 601 685.7 601 642.8 601C600 601 557 601 514.2 601C471.3 601 428.7 601 385.8 601C343 601 300 601 257.2 601C214.3 601 171.7 601 128.8 601C86 601 43 601 21.5 601L0 601Z" fill="#e34c67"></path><path d="M0 532L21.5 536.7C43 541.3 86 550.7 128.8 552.2C171.7 553.7 214.3 547.3 257.2 545.5C300 543.7 343 546.3 385.8 545C428.7 543.7 471.3 538.3 514.2 540C557 541.7 600 550.3 642.8 551.8C685.7 553.3 728.3 547.7 771.2 548C814 548.3 857 554.7 878.5 557.8L900 561L900 601L878.5 601C857 601 814 601 771.2 601C728.3 601 685.7 601 642.8 601C600 601 557 601 514.2 601C471.3 601 428.7 601 385.8 601C343 601 300 601 257.2 601C214.3 601 171.7 601 128.8 601C86 601 43 601 21.5 601L0 601Z" fill="#d53867"></path><path d="M0 579L21.5 576.8C43 574.7 86 570.3 128.8 568.2C171.7 566 214.3 566 257.2 565.7C300 565.3 343 564.7 385.8 562.7C428.7 560.7 471.3 557.3 514.2 556.8C557 556.3 600 558.7 642.8 561.8C685.7 565 728.3 569 771.2 568C814 567 857 561 878.5 558L900 555L900 601L878.5 601C857 601 814 601 771.2 601C728.3 601 685.7 601 642.8 601C600 601 557 601 514.2 601C471.3 601 428.7 601 385.8 601C343 601 300 601 257.2 601C214.3 601 171.7 601 128.8 601C86 601 43 601 21.5 601L0 601Z" fill="#c62368"></path></svg>