<svg id="visual" viewBox="0 0 900 600" width="900" height="600" xmlns="http://www.w3.org/2000/svg" xmlns:xlink="http://www.w3.org/1999/xlink" version="1.1"><path d="M0 199L82 199L82 223L164 223L164 169L245 169L245 211L327 211L327 85L409 85L409 97L491 97L491 109L573 109L573 127L655 127L655 223L736 223L736 175L818 175L818 289L900 289L900 181L900 0L900 0L818 0L818 0L736 0L736 0L655 0L655 0L573 0L573 0L491 0L491 0L409 0L409 0L327 0L327 0L245 0L245 0L164 0L164 0L82 0L82 0L0 0Z" fill="#fa7268"></path><path d="M0 319L82 319L82 349L164 349L164 415L245 415L245 367L327 367L327 349L409 349L409 325L491 325L491 295L573 295L573 337L655 337L655 457L736 457L736 325L818 325L818 439L900 439L900 331L900 179L900 287L818 287L818 173L736 173L736 221L655 221L655 125L573 125L573 107L491 107L491 95L409 95L409 83L327 83L327 209L245 209L245 167L164 167L164 221L82 221L82 197L0 197Z" fill="#ea5e66"></path><path d="M0 415L82 415L82 511L164 511L164 469L245 469L245 427L327 427L327 505L409 505L409 469L491 469L491 451L573 451L573 445L655 445L655 517L736 517L736 487L818 487L818 499L900 499L900 445L900 329L900 437L818 437L818 323L736 323L736 455L655 455L655 335L573 335L573 293L491 293L491 323L409 323L409 347L327 347L327 365L245 365L245 413L164 413L164 347L82 347L82 317L0 317Z" fill="#d84a64"></path><path d="M0 517L82 517L82 547L164 547L164 547L245 547L245 523L327 523L327 553L409 553L409 553L491 553L491 541L573 541L573 505L655 505L655 559L736 559L736 559L818 559L818 547L900 547L900 481L900 443L900 497L818 497L818 485L736 485L736 515L655 515L655 443L573 443L573 449L491 449L491 467L409 467L409 503L327 503L327 425L245 425L245 467L164 467L164 509L82 509L82 413L0 413Z" fill="#c53762"></path><path d="M0 601L82 601L82 601L164 601L164 601L245 601L245 601L327 601L327 601L409 601L409 601L491 601L491 601L573 601L573 601L655 601L655 601L736 601L736 601L818 601L818 601L900 601L900 601L900 479L900 545L818 545L818 557L736 557L736 557L655 557L655 503L573 503L573 539L491 539L491 551L409 551L409 551L327 551L327 521L245 521L245 545L164 545L164 545L82 545L82 515L0 515Z" fill="#b0235f"></path></svg>